<svg xmlns="http://www.w3.org/2000/svg" xmlns:xlink="http://www.w3.org/1999/xlink" version="1.1" width="1000" height="1000" viewBox="0 0 1000 1000" xml:space="preserve">
<desc>Created with Fabric.js 3.5.0</desc>
<defs>
</defs>
<rect x="0" y="0" width="100%" height="100%" fill="#ffffff"/>
<g transform="matrix(-1.592 -0.4348 0.4312 -1.5789 484.359 493.0178)" id="870870">
<path style="stroke: none; stroke-width: 1; stroke-dasharray: none; stroke-linecap: butt; stroke-dashoffset: 0; stroke-linejoin: miter; stroke-miterlimit: 4; is-custom-font: none; font-file-url: none; fill: rgb(67,37,111); fill-rule: nonzero; opacity: 1;" vector-effect="non-scaling-stroke" transform=" translate(9.6777, 6.6792)" d="M 196.4 -238.7 C 241.5 -196.2 256.2 -122 268 -48.2 C 279.9 25.5 288.9 98.7 254.4 136.1 C 220 173.4 142.1 174.8 72.1 202 C 2.1 229.3 -60 282.4 -121.2 282.2 C -182.4 282 -242.8 228.5 -272.6 163.7 C -302.5 99 -301.9 22.9 -291.6 -54.1 C -281.2 -131.2 -261.1 -209.2 -210.9 -250.9 C -160.7 -292.5 -80.3 -297.8 -2.4 -294.9 C 75.6 -292.1 151.3 -281.3 196.4 -238.7" stroke-linecap="round"/>
</g>
</svg>